<svg width="378" height="110" viewBox="0 0 378 110" fill="none" xmlns="http://www.w3.org/2000/svg">
<path d="M6.15669 87V21.5455H19.9955V75.5902H48.0566V87H6.15669Z" fill="#0F0F1A"/>
<path d="M112 99C136.301 99 156 79.3005 156 55C156 30.6995 136.301 11 112 11C87.6995 11 68 30.6995 68 55C68 79.3005 87.6995 99 112 99Z" stroke="#0F0F1A" stroke-width="7"/>
<path d="M112 11V23" stroke="#0F0F1A" stroke-width="4" stroke-linecap="round"/>
<path d="M112 87V99" stroke="#0F0F1A" stroke-width="4" stroke-linecap="round"/>
<path d="M68 55H80" stroke="#0F0F1A" stroke-width="4" stroke-linecap="round"/>
<path d="M144 55H156" stroke="#0F0F1A" stroke-width="4" stroke-linecap="round"/>
<path opacity="0.35" d="M81 24L89 32" stroke="#0F0F1A" stroke-width="2" stroke-linecap="round"/>
<path opacity="0.35" d="M135 24L143 32" stroke="#0F0F1A" stroke-width="2" stroke-linecap="round"/>
<path opacity="0.35" d="M81 86L89 78" stroke="#0F0F1A" stroke-width="2" stroke-linecap="round"/>
<path opacity="0.35" d="M135 86L143 78" stroke="#0F0F1A" stroke-width="2" stroke-linecap="round"/>
<path d="M112 31C99 31 89 41 89 53C89 68 112 85 112 85C112 85 135 68 135 53C135 41 125 31 112 31Z" fill="#FF6B35"/>
<path d="M112 61C116.971 61 121 56.9706 121 52C121 47.0294 116.971 43 112 43C107.029 43 103 47.0294 103 52C103 56.9706 107.029 61 112 61Z" fill="#F0EDE8"/>
<path d="M177.689 87V21.5455H191.528V50.4055H192.391L215.945 21.5455H232.533L208.243 50.853L232.82 87H216.265L198.335 60.0895L191.528 68.3991V87H177.689ZM251.022 87H236.192L258.788 21.5455H276.622L299.186 87H284.356L267.961 36.5028H267.449L251.022 87ZM250.095 61.272H285.123V72.0746H250.095V61.272ZM307.064 87V21.5455H320.903V75.5902H348.964V87H307.064ZM371.967 21.5455V87H358.128V21.5455H371.967Z" fill="#0F0F1A"/>
</svg>
